<svg id="Layer_1" data-name="Layer 1" xmlns="http://www.w3.org/2000/svg" viewBox="0 0 180 180"><defs><style>.cls-1{fill:#ef4136;}.cls-2{fill:#fff;}</style></defs><path class="cls-1" d="M132.57,12.09l-43,43-43-43a83.5,83.5,0,1,0,86,0Z"/><path class="cls-2" d="M55,60.27c.18,1.45.31,3,.41,4.57s.13,3.7.13,6.32v50.08H45.29V47h9.8l35,48.32L122.7,47h11v74.24h-11V71.16q0-1,.24-5t.31-5.94q-1.36,2.88-2.42,4.85c-.71,1.31-1.33,2.36-1.87,3.16l-27.51,41.3H88.39L59.79,69.4a4.78,4.78,0,0,1-.34-.49A32,32,0,0,1,55,60.27Z"/></svg>